PathFileType	4	(X/Y/Z)	E:/New_biomech_experiments/Elbow Flexion/Shreyas_25_06_24_elbow_flexion/Session 2024-06-26/Shreyas_ElbFlex_pp_staticPose.trc	
DataRate	CameraRate	NumFrames	NumMarkers	Units	OrigDataRate	OrigDataStartFrame	OrigNumFrames	
120.00	120.00	25	19	m	120.00	1	778	
Frame#	Time	MarkerSet_LFHD			MarkerSet_LBHD			MarkerSet_C7			MarkerSet_RBHD			MarkerSet_PRSHO			MarkerSet_RSHO			MarkerSet_STRN			MarkerSet_RFHD			MarkerSet_CLAV			MarkerSet_RWRA			MarkerSet_RWRB			MarkerSet_ARSHO			MarkerSet_RFRM			MarkerSet_RELB			MarkerSet_RUPA			MarkerSet_MRHAND			MarkerSet_T10			MarkerSet_RHAND			MarkerSet_MRELB			
		X1	Y1	Z1	X2	Y2	Z2	X3	Y3	Z3	X4	Y4	Z4	X5	Y5	Z5	X6	Y6	Z6	X7	Y7	Z7	X8	Y8	Z8	X9	Y9	Z9	X10	Y10	Z10	X11	Y11	Z11	X12	Y12	Z12	X13	Y13	Z13	X14	Y14	Z14	X15	Y15	Z15	X16	Y16	Z16	X17	Y17	Z17	X18	Y18	Z18	X19	Y19	Z19	

1	0.000	0.05047	1.83883	-0.04184	-0.05378	1.73738	-0.06754	-0.08416	1.54359	-0.00743	-0.07468	1.75467	0.06862	-0.11121	1.44522	0.12103	0.00532	1.49956	0.20515	0.15449	1.34604	-0.00587	0.02768	1.82125	0.08409	0.11338	1.46862	0.00149	0.25726	1.18808	0.14898	0.27645	1.16325	0.24386	0.09116	1.45741	0.11196	0.15014	1.18181	0.25545	0.01565	1.18660	0.27462	0.00727	1.30564	0.25221	0.36914	1.14677	0.24870	-0.10293	1.33232	-0.01873	0.39604	1.18584	0.13445	0.00458	1.13572	0.16616 
2	0.008	0.05046	1.83886	-0.04184	-0.05380	1.73742	-0.06757	-0.08416	1.54355	-0.00743	-0.07473	1.75465	0.06857	-0.11126	1.44526	0.12096	0.00528	1.49959	0.20511	0.15443	1.34605	-0.00592	0.02763	1.82126	0.08406	0.11334	1.46864	0.00142	0.25717	1.18809	0.14892	0.27636	1.16326	0.24382	0.09112	1.45744	0.11192	0.15004	1.18177	0.25533	0.01557	1.18662	0.27455	0.00719	1.30567	0.25213	0.36905	1.14678	0.24867	-0.10302	1.33238	-0.01881	0.39596	1.18584	0.13444	0.00449	1.13575	0.16609 
3	0.017	0.05044	1.83888	-0.04185	-0.05382	1.73746	-0.06760	-0.08418	1.54354	-0.00745	-0.07478	1.75465	0.06852	-0.11131	1.44531	0.12089	0.00523	1.49961	0.20506	0.15437	1.34607	-0.00597	0.02758	1.82128	0.08403	0.11329	1.46866	0.00135	0.25708	1.18809	0.14886	0.27628	1.16327	0.24377	0.09108	1.45747	0.11188	0.14993	1.18172	0.25521	0.01549	1.18664	0.27449	0.00711	1.30570	0.25206	0.36896	1.14679	0.24865	-0.10311	1.33243	-0.01888	0.39589	1.18584	0.13443	0.00441	1.13578	0.16603 
4	0.025	0.05041	1.83891	-0.04186	-0.05385	1.73749	-0.06764	-0.08419	1.54355	-0.00748	-0.07484	1.75465	0.06846	-0.11136	1.44535	0.12083	0.00519	1.49964	0.20501	0.15430	1.34608	-0.00602	0.02753	1.82130	0.08400	0.11325	1.46868	0.00128	0.25699	1.18810	0.14880	0.27619	1.16327	0.24373	0.09104	1.45750	0.11184	0.14982	1.18167	0.25510	0.01542	1.18666	0.27441	0.00703	1.30572	0.25198	0.36887	1.14679	0.24863	-0.10320	1.33249	-0.01896	0.39581	1.18584	0.13441	0.00432	1.13580	0.16596 
5	0.033	0.05039	1.83894	-0.04187	-0.05387	1.73753	-0.06768	-0.08422	1.54357	-0.00754	-0.07489	1.75465	0.06840	-0.11141	1.44540	0.12076	0.00515	1.49967	0.20496	0.15424	1.34609	-0.00608	0.02748	1.82131	0.08397	0.11321	1.46870	0.00122	0.25691	1.18811	0.14874	0.27610	1.16328	0.24368	0.09100	1.45753	0.11179	0.14971	1.18164	0.25500	0.01534	1.18668	0.27434	0.00695	1.30575	0.25190	0.36878	1.14679	0.24860	-0.10329	1.33255	-0.01904	0.39573	1.18584	0.13440	0.00424	1.13583	0.16589 
6	0.042	0.05036	1.83897	-0.04189	-0.05389	1.73758	-0.06772	-0.08424	1.54361	-0.00760	-0.07495	1.75466	0.06834	-0.11146	1.44545	0.12070	0.00511	1.49969	0.20491	0.15418	1.34611	-0.00613	0.02743	1.82133	0.08394	0.11317	1.46872	0.00115	0.25683	1.18813	0.14869	0.27601	1.16329	0.24364	0.09097	1.45756	0.11174	0.14961	1.18164	0.25492	0.01525	1.18670	0.27427	0.00688	1.30578	0.25183	0.36869	1.14679	0.24858	-0.10337	1.33260	-0.01911	0.39565	1.18584	0.13438	0.00415	1.13586	0.16582 
7	0.050	0.05033	1.83900	-0.04191	-0.05389	1.73764	-0.06776	-0.08426	1.54366	-0.00767	-0.07501	1.75467	0.06827	-0.11150	1.44550	0.12063	0.00507	1.49973	0.20485	0.15411	1.34612	-0.00619	0.02738	1.82135	0.08391	0.11313	1.46874	0.00109	0.25676	1.18814	0.14864	0.27592	1.16329	0.24359	0.09093	1.45760	0.11170	0.14952	1.18167	0.25487	0.01517	1.18673	0.27420	0.00680	1.30581	0.25175	0.36859	1.14679	0.24855	-0.10346	1.33266	-0.01919	0.39557	1.18583	0.13437	0.00407	1.13589	0.16576 
8	0.058	0.05030	1.83904	-0.04194	-0.05390	1.73771	-0.06781	-0.08429	1.54370	-0.00773	-0.07507	1.75468	0.06820	-0.11155	1.44556	0.12056	0.00503	1.49976	0.20479	0.15405	1.34613	-0.00625	0.02733	1.82136	0.08388	0.11310	1.46877	0.00102	0.25668	1.18815	0.14859	0.27583	1.16330	0.24354	0.09089	1.45763	0.11165	0.14943	1.18174	0.25485	0.01508	1.18676	0.27412	0.00673	1.30585	0.25168	0.36850	1.14680	0.24852	-0.10354	1.33272	-0.01926	0.39549	1.18583	0.13435	0.00398	1.13593	0.16569 
9	0.067	0.05026	1.83907	-0.04197	-0.05390	1.73777	-0.06786	-0.08431	1.54373	-0.00778	-0.07512	1.75468	0.06814	-0.11159	1.44562	0.12049	0.00499	1.49980	0.20473	0.15398	1.34614	-0.00632	0.02729	1.82138	0.08386	0.11306	1.46879	0.00095	0.25660	1.18816	0.14854	0.27574	1.16331	0.24350	0.09086	1.45766	0.11160	0.14934	1.18182	0.25484	0.01498	1.18679	0.27404	0.00666	1.30588	0.25160	0.36840	1.14680	0.24849	-0.10363	1.33279	-0.01934	0.39542	1.18582	0.13432	0.00389	1.13596	0.16563 
10	0.075	0.05022	1.83910	-0.04201	-0.05390	1.73783	-0.06791	-0.08433	1.54376	-0.00784	-0.07518	1.75468	0.06807	-0.11164	1.44568	0.12042	0.00496	1.49984	0.20466	0.15391	1.34616	-0.00638	0.02724	1.82140	0.08383	0.11303	1.46882	0.00088	0.25651	1.18817	0.14849	0.27564	1.16332	0.24345	0.09083	1.45770	0.11154	0.14925	1.18191	0.25483	0.01489	1.18682	0.27397	0.00659	1.30592	0.25153	0.36830	1.14681	0.24846	-0.10372	1.33285	-0.01942	0.39534	1.18581	0.13430	0.00380	1.13600	0.16556 
11	0.083	0.05018	1.83914	-0.04205	-0.05391	1.73788	-0.06796	-0.08435	1.54380	-0.00790	-0.07523	1.75469	0.06799	-0.11168	1.44575	0.12035	0.00492	1.49988	0.20460	0.15384	1.34617	-0.00645	0.02720	1.82142	0.08380	0.11300	1.46885	0.00081	0.25643	1.18819	0.14844	0.27554	1.16334	0.24340	0.09080	1.45774	0.11149	0.14916	1.18200	0.25481	0.01480	1.18686	0.27389	0.00652	1.30596	0.25146	0.36820	1.14682	0.24843	-0.10381	1.33292	-0.01949	0.39525	1.18580	0.13427	0.00371	1.13604	0.16550 
12	0.092	0.05015	1.83918	-0.04209	-0.05392	1.73793	-0.06802	-0.08438	1.54385	-0.00797	-0.07529	1.75471	0.06792	-0.11173	1.44582	0.12028	0.00488	1.49993	0.20453	0.15377	1.34618	-0.00652	0.02716	1.82144	0.08376	0.11297	1.46888	0.00075	0.25634	1.18820	0.14839	0.27544	1.16335	0.24335	0.09077	1.45777	0.11144	0.14906	1.18209	0.25480	0.01470	1.18690	0.27382	0.00645	1.30601	0.25139	0.36810	1.14682	0.24840	-0.10391	1.33299	-0.01957	0.39516	1.18580	0.13424	0.00361	1.13608	0.16544 
13	0.100	0.05011	1.83921	-0.04214	-0.05393	1.73798	-0.06809	-0.08440	1.54390	-0.00804	-0.07533	1.75472	0.06785	-0.11177	1.44589	0.12021	0.00484	1.49998	0.20446	0.15370	1.34620	-0.00659	0.02712	1.82146	0.08373	0.11294	1.46891	0.00068	0.25626	1.18821	0.14834	0.27535	1.16336	0.24330	0.09074	1.45781	0.11139	0.14896	1.18220	0.25479	0.01461	1.18694	0.27375	0.00638	1.30606	0.25133	0.36799	1.14682	0.24836	-0.10400	1.33307	-0.01965	0.39507	1.18580	0.13421	0.00351	1.13612	0.16538 
14	0.108	0.05008	1.83925	-0.04219	-0.05395	1.73802	-0.06815	-0.08443	1.54395	-0.00812	-0.07537	1.75474	0.06779	-0.11182	1.44596	0.12014	0.00480	1.50002	0.20438	0.15363	1.34621	-0.00666	0.02709	1.82148	0.08370	0.11291	1.46894	0.00060	0.25616	1.18823	0.14829	0.27525	1.16337	0.24325	0.09071	1.45786	0.11133	0.14886	1.18231	0.25478	0.01451	1.18698	0.27368	0.00631	1.30611	0.25126	0.36789	1.14682	0.24831	-0.10410	1.33314	-0.01973	0.39497	1.18580	0.13418	0.00340	1.13617	0.16531 
15	0.117	0.05005	1.83929	-0.04223	-0.05396	1.73806	-0.06822	-0.08446	1.54401	-0.00820	-0.07541	1.75477	0.06772	-0.11186	1.44604	0.12006	0.00476	1.50008	0.20431	0.15356	1.34623	-0.00673	0.02705	1.82150	0.08367	0.11288	1.46898	0.00053	0.25607	1.18825	0.14824	0.27515	1.16337	0.24319	0.09069	1.45790	0.11128	0.14876	1.18240	0.25477	0.01442	1.18703	0.27362	0.00624	1.30617	0.25120	0.36778	1.14681	0.24826	-0.10421	1.33322	-0.01981	0.39488	1.18581	0.13414	0.00330	1.13622	0.16525 
16	0.125	0.05004	1.83932	-0.04227	-0.05398	1.73810	-0.06830	-0.08450	1.54408	-0.00829	-0.07545	1.75480	0.06764	-0.11191	1.44612	0.11999	0.00472	1.50013	0.20423	0.15349	1.34624	-0.00679	0.02702	1.82152	0.08363	0.11285	1.46901	0.00046	0.25598	1.18827	0.14819	0.27505	1.16338	0.24314	0.09066	1.45794	0.11122	0.14866	1.18248	0.25475	0.01432	1.18708	0.27356	0.00616	1.30623	0.25113	0.36768	1.14679	0.24820	-0.10431	1.33330	-0.01989	0.39478	1.18583	0.13411	0.00319	1.13627	0.16519 
17	0.133	0.05003	1.83936	-0.04230	-0.05400	1.73813	-0.06838	-0.08453	1.54415	-0.00839	-0.07549	1.75484	0.06756	-0.11196	1.44620	0.11992	0.00468	1.50018	0.20415	0.15342	1.34625	-0.00686	0.02700	1.82154	0.08360	0.11282	1.46905	0.00039	0.25588	1.18830	0.14814	0.27496	1.16338	0.24309	0.09063	1.45799	0.11117	0.14857	1.18255	0.25472	0.01422	1.18713	0.27350	0.00609	1.30629	0.25107	0.36758	1.14677	0.24815	-0.10442	1.33337	-0.01997	0.39468	1.18585	0.13407	0.00309	1.13632	0.16514 
18	0.142	0.05002	1.83939	-0.04234	-0.05404	1.73816	-0.06848	-0.08457	1.54422	-0.00849	-0.07553	1.75488	0.06748	-0.11201	1.44628	0.11984	0.00464	1.50024	0.20406	0.15334	1.34627	-0.00693	0.02697	1.82155	0.08356	0.11279	1.46908	0.00032	0.25579	1.18832	0.14808	0.27486	1.16339	0.24304	0.09059	1.45803	0.11111	0.14847	1.18261	0.25468	0.01413	1.18718	0.27344	0.00602	1.30636	0.25101	0.36747	1.14675	0.24808	-0.10453	1.33345	-0.02005	0.39457	1.18588	0.13403	0.00298	1.13637	0.16508 
19	0.150	0.05002	1.83942	-0.04238	-0.05408	1.73818	-0.06858	-0.08462	1.54430	-0.00861	-0.07556	1.75491	0.06740	-0.11206	1.44636	0.11977	0.00460	1.50029	0.20398	0.15327	1.34628	-0.00699	0.02695	1.82157	0.08352	0.11275	1.46911	0.00025	0.25569	1.18833	0.14802	0.27476	1.16340	0.24298	0.09056	1.45808	0.11104	0.14838	1.18267	0.25464	0.01404	1.18724	0.27338	0.00594	1.30643	0.25095	0.36737	1.14674	0.24802	-0.10464	1.33352	-0.02013	0.39446	1.18591	0.13398	0.00288	1.13642	0.16503 
20	0.158	0.05003	1.83945	-0.04241	-0.05411	1.73821	-0.06868	-0.08467	1.54439	-0.00874	-0.07559	1.75494	0.06733	-0.11211	1.44644	0.11969	0.00456	1.50034	0.20390	0.15319	1.34629	-0.00706	0.02693	1.82158	0.08348	0.11272	1.46914	0.00017	0.25559	1.18834	0.14796	0.27466	1.16342	0.24292	0.09052	1.45813	0.11098	0.14828	1.18272	0.25459	0.01394	1.18729	0.27333	0.00587	1.30649	0.25089	0.36726	1.14673	0.24796	-0.10475	1.33359	-0.02020	0.39433	1.18596	0.13394	0.00278	1.13647	0.16498 
21	0.167	0.05003	1.83948	-0.04245	-0.05413	1.73825	-0.06878	-0.08473	1.54448	-0.00888	-0.07561	1.75496	0.06726	-0.11216	1.44653	0.11962	0.00452	1.50040	0.20382	0.15312	1.34629	-0.00713	0.02690	1.82160	0.08344	0.11268	1.46917	0.00010	0.25549	1.18835	0.14790	0.27456	1.16344	0.24286	0.09048	1.45817	0.11092	0.14819	1.18277	0.25454	0.01385	1.18735	0.27327	0.00580	1.30656	0.25083	0.36715	1.14673	0.24790	-0.10486	1.33366	-0.02027	0.39420	1.18602	0.13389	0.00268	1.13651	0.16493 
22	0.175	0.05004	1.83951	-0.04249	-0.05415	1.73828	-0.06888	-0.08478	1.54457	-0.00900	-0.07563	1.75500	0.06718	-0.11221	1.44660	0.11955	0.00448	1.50045	0.20374	0.15304	1.34630	-0.00720	0.02689	1.82161	0.08339	0.11264	1.46920	0.00002	0.25539	1.18835	0.14783	0.27445	1.16346	0.24280	0.09045	1.45822	0.11086	0.14810	1.18282	0.25449	0.01375	1.18741	0.27322	0.00574	1.30662	0.25077	0.36704	1.14674	0.24783	-0.10497	1.33373	-0.02034	0.39407	1.18610	0.13386	0.00257	1.13656	0.16489 
23	0.183	0.05005	1.83953	-0.04253	-0.05417	1.73831	-0.06899	-0.08483	1.54464	-0.00911	-0.07564	1.75503	0.06711	-0.11226	1.44667	0.11949	0.00444	1.50050	0.20366	0.15296	1.34630	-0.00728	0.02687	1.82162	0.08334	0.11260	1.46923	-0.00006	0.25529	1.18836	0.14776	0.27435	1.16348	0.24274	0.09041	1.45826	0.11079	0.14800	1.18287	0.25443	0.01366	1.18746	0.27317	0.00567	1.30668	0.25071	0.36694	1.14674	0.24776	-0.10508	1.33379	-0.02041	0.39394	1.18614	0.13379	0.00247	1.13660	0.16484 
24	0.192	0.05008	1.83955	-0.04257	-0.05417	1.73834	-0.06909	-0.08488	1.54471	-0.00921	-0.07566	1.75507	0.06703	-0.11231	1.44673	0.11943	0.00440	1.50055	0.20357	0.15288	1.34631	-0.00735	0.02686	1.82163	0.08329	0.11255	1.46926	-0.00013	0.25518	1.18837	0.14768	0.27424	1.16349	0.24268	0.09037	1.45830	0.11072	0.14791	1.18291	0.25438	0.01356	1.18752	0.27312	0.00560	1.30674	0.25066	0.36684	1.14674	0.24768	-0.10519	1.33385	-0.02048	0.39382	1.18612	0.13368	0.00236	1.13665	0.16480 
25	0.200	0.05011	1.83957	-0.04261	-0.05417	1.73838	-0.06919	-0.08493	1.54476	-0.00929	-0.07567	1.75512	0.06695	-0.11236	1.44679	0.11938	0.00436	1.50060	0.20349	0.15280	1.34631	-0.00743	0.02685	1.82164	0.08324	0.11250	1.46928	-0.00022	0.25507	1.18839	0.14761	0.27414	1.16350	0.24261	0.09033	1.45835	0.11064	0.14782	1.18295	0.25432	0.01347	1.18757	0.27307	0.00554	1.30680	0.25060	0.36674	1.14673	0.24760	-0.10530	1.33391	-0.02054	0.39370	1.18606	0.13355	0.00226	1.13669	0.16476 
